# xmcd
#
# Track frame offsets: 
#        150
#        15515
#        33777
#        52330
#        70645
#        90115
#        109107
#        122992
#        133287
#        145912
#        163520
#        181357
#        189782
#        201802
#        214465
#        232887
#
# Disc length: 3173 seconds
#
# Revision: 1
# Processed by: cddbd v1.5.1PL0 Copyright (c) Steve Scherf et al.
# Submitted via: ExactAudioCopy v0.95a5
#
DISCID=db0c6310
DTITLE=Various Artist - Rhythm and Soul n° 4
DYEAR=1998
DGENRE=Soul
TTITLE0=Boney M - Daddy Cool
TTITLE1=Diana Ross - Upside Down
TTITLE2=Indeep - Last Night A D.J. Saved My Life
TTITLE3=Mel Brooks - It's Good To Be The King
TTITLE4=Grace Jones - Slave To The Rhythm
TTITLE5=Jocelyn Brown - Somebody Else's Guy
TTITLE6=Eddie Floyd - Knock On Wood
TTITLE7=The Bar-Kays - Soul Finger
TTITLE8=Isley Brothers - This Old Eart Of Mine
TTITLE9=Marvin Gaye - What's Going On
TTITLE10=Smokey Robinson - Just To See Her
TTITLE11=Gladys Knight - Every Beat Of My Heart
TTITLE12=The Drifters - Under The Boardwalk
TTITLE13=Percy Sledge - When A Man Loves A Woman
TTITLE14=Boyz II Men - Motownphilly
TTITLE15=Polygram - Pub
EXTD=
EXTT0=
EXTT1=
EXTT2=
EXTT3=
EXTT4=
EXTT5=
EXTT6=
EXTT7=
EXTT8=
EXTT9=
EXTT10=
EXTT11=
EXTT12=
EXTT13=
EXTT14=
EXTT15=
PLAYORDER=
